<svg xmlns="http://www.w3.org/2000/svg" version="1.1" xmlns:xlink="http://www.w3.org/1999/xlink" xmlns:svgjs="http://svgjs.dev/svgjs" width="2000" height="1252" viewBox="0 0 2000 1252"><g transform="matrix(1,0,0,1,-1.2121212121211329,-2.01935483870966)"><svg viewBox="0 0 396 248" data-background-color="#001f3f" preserveAspectRatio="xMidYMid meet" height="1252" width="2000" xmlns="http://www.w3.org/2000/svg" xmlns:xlink="http://www.w3.org/1999/xlink"><g id="tight-bounds" transform="matrix(1,0,0,1,0.2400000000000091,0.4000000000000057)"><svg viewBox="0 0 395.52 247.2" height="247.2" width="395.52"><g><svg></svg></g><g><svg viewBox="0 0 395.52 247.2" height="247.2" width="395.52"><g transform="matrix(1,0,0,1,75.54432,53.289761125280464)"><svg viewBox="0 0 244.43135999999998 140.62047774943906" height="140.62047774943906" width="244.43135999999998"><g><svg viewBox="0 0 244.43135999999998 140.62047774943906" height="140.62047774943906" width="244.43135999999998"><g><svg viewBox="0 0 244.43135999999998 140.62047774943906" height="140.62047774943906" width="244.43135999999998"><g><svg viewBox="0 0 244.43135999999998 140.62047774943906" height="140.62047774943906" width="244.43135999999998"><g id="textblocktransform"><svg viewBox="0 0 244.43135999999998 140.62047774943906" height="140.62047774943906" width="244.43135999999998" id="textblock"><g><svg viewBox="0 0 244.43135999999998 75.84396634735526" height="75.84396634735526" width="244.43135999999998"><g transform="matrix(1,0,0,1,0,0)"><svg width="244.43135999999998" viewBox="1 -36.75 120.04 37.25" height="75.84396634735526" data-palette-color="#ffffff"><path d="M11.9 0L1-34.5 6.1-34.5 14.6-5.6 13.4-5.6 22.1-34.5 26.15-34.5 34.95-5.6 33.7-5.6 42.15-34.5 47.05-34.5 36.2 0 32.2 0 23.4-28.05 24.7-28.05 15.9 0 11.9 0ZM50.8-12.85L50.8-12.85Q50.8-17.2 52.3-20.18 53.8-23.15 56.4-24.7 59-26.25 62.35-26.25L62.35-26.25Q65.7-26.25 68.3-24.7 70.9-23.15 72.4-20.18 73.9-17.2 73.9-12.85L73.9-12.85Q73.9-8.55 72.4-5.55 70.9-2.55 68.3-1.03 65.7 0.5 62.35 0.5L62.35 0.5Q59 0.5 56.4-1.03 53.8-2.55 52.3-5.55 50.8-8.55 50.8-12.85ZM55.5-12.85L55.5-12.85Q55.5-9.85 56.32-7.78 57.15-5.7 58.67-4.63 60.2-3.55 62.35-3.55L62.35-3.55Q64.5-3.55 66.02-4.63 67.55-5.7 68.37-7.78 69.2-9.85 69.2-12.85L69.2-12.85Q69.2-15.85 68.37-17.93 67.55-20 66.02-21.1 64.5-22.2 62.35-22.2L62.35-22.2Q60.2-22.2 58.67-21.1 57.15-20 56.32-17.93 55.5-15.85 55.5-12.85ZM80.8-23.55L80.4-25.75 84.7-25.75 85.55-21.65Q87-23.8 89.12-25.03 91.25-26.25 93.9-26.25L93.9-26.25 93.9-21.3Q91.25-21.2 89.2-20.38 87.15-19.55 85.75-18.1L85.75-18.1 85.75 0 81.15 0 81.15-19.65Q81.15-20.7 81.07-21.58 81-22.45 80.8-23.55L80.8-23.55ZM104.24 0L99.64 0 99.64-35.75 104.24-36.75 104.24-14.45 114.44-25.75 120.29-25.75 110.59-15.4 121.04 0 115.44 0 107.54-12.15 104.24-8.6 104.24 0Z" opacity="1" transform="matrix(1,0,0,1,0,0)" fill="#ffffff" class="wordmark-text-0" data-fill-palette-color="primary" id="text-0"></path></svg></g></svg></g><g transform="matrix(1,0,0,1,160.50497734507965,93.7489065467735)"><svg viewBox="0 0 83.92638265492033 46.87157120266555" height="46.87157120266555" width="83.92638265492033"><g transform="matrix(1,0,0,1,0,0)"><svg width="83.92638265492033" viewBox="1.95 -33.5 60.699999999999996 33.900000000000006" height="46.87157120266555" data-palette-color="#ffffff"><path d="M18.15 0.4L18.15 0.4Q13.1 0.4 9.47-1.88 5.85-4.15 3.9-8 1.95-11.85 1.95-16.55L1.95-16.55Q1.95-21.25 3.95-25.1 5.95-28.95 9.63-31.23 13.3-33.5 18.25-33.5L18.25-33.5Q23.6-33.5 27.53-30.88 31.45-28.25 33.3-24.1L33.3-24.1 29.2-24.1Q27.7-26.75 25.03-28.3 22.35-29.85 18.55-29.85L18.55-29.85Q14.55-29.85 11.65-28.08 8.75-26.3 7.23-23.3 5.7-20.3 5.7-16.55L5.7-16.55Q5.7-12.85 7.2-9.83 8.7-6.8 11.58-5.03 14.45-3.25 18.45-3.25L18.45-3.25Q21.45-3.25 24.13-4.55 26.8-5.85 28.48-8.3 30.15-10.75 30.15-14.2L30.15-14.2 18.05-14.2 18.05-17.6 33.6-17.6 33.6 0 30.15 0 30.15-5.85Q29.1-4.25 27.45-2.83 25.8-1.4 23.48-0.5 21.15 0.4 18.15 0.4ZM50.25 0.4L50.25 0.4Q46.45 0.4 43.65-1.33 40.85-3.05 39.35-6 37.85-8.95 37.85-12.5L37.85-12.5Q37.85-16.1 39.35-19.03 40.85-21.95 43.65-23.68 46.45-25.4 50.25-25.4L50.25-25.4Q54.1-25.4 56.87-23.68 59.65-21.95 61.15-19.03 62.65-16.1 62.65-12.5L62.65-12.5Q62.65-8.95 61.15-6 59.65-3.05 56.87-1.33 54.1 0.4 50.25 0.4ZM50.25-3L50.25-3Q53.05-3 54.97-4.3 56.9-5.6 57.9-7.78 58.9-9.95 58.9-12.5L58.9-12.5Q58.9-15.1 57.9-17.25 56.9-19.4 54.97-20.7 53.05-22 50.25-22L50.25-22Q47.5-22 45.55-20.7 43.6-19.4 42.6-17.25 41.6-15.1 41.6-12.5L41.6-12.5Q41.6-9.95 42.6-7.78 43.6-5.6 45.55-4.3 47.5-3 50.25-3Z" opacity="1" transform="matrix(1,0,0,1,0,0)" fill="#ffffff" class="slogan-text-1" data-fill-palette-color="secondary" id="text-1"></path></svg></g></svg></g></svg></g></svg></g></svg></g></svg></g></svg></g><g><path d="M0 123.6c0-68.262 55.338-123.6 123.6-123.6 38.098 0 72.17 17.237 94.843 44.337l-4.504 0c-22.026-25.084-54.333-40.917-90.339-40.917-66.374 0-120.18 53.806-120.18 120.18 0 66.374 53.806 120.18 120.18 120.18 36.005 0 68.313-15.833 90.339-40.917h4.504c-22.673 27.1-56.745 44.337-94.843 44.337-68.262 0-123.6-55.338-123.6-123.6z" fill="#ffffff" stroke="transparent" data-fill-palette-color="tertiary"></path></g></svg></g><defs></defs></svg><rect width="395.52" height="247.2" fill="none" stroke="none" visibility="hidden"></rect></g></svg></g></svg>